<svg xmlns="http://www.w3.org/2000/svg" viewBox="0 0 122.88 122.89" xmlns:v="https://vecta.io/nano"><path d="M49.06 1.27C51.23.82 53.4.5 55.54.29c2.2-.21 4.38-.31 6.53-.29a2.19 2.19 0 0 1 2.17 2.21 2.2 2.2 0 0 1-1.42 2.03c-9.15 3.6-16.47 10.31-20.96 18.62a40.77 40.77 0 0 0-4.09 27.68l.01.07c2.29 11.06 8.83 20.15 17.58 25.91a40.81 40.81 0 0 0 30.73 5.92l.07-.01c7.96-1.65 14.89-5.49 20.3-10.78 5.6-5.47 9.56-12.48 11.33-20.16.27-1.18 1.45-1.91 2.62-1.64a2.2 2.2 0 0 1 1.67 1.78c2.64 16.2-1.35 32.07-10.06 44.71-8.67 12.58-22.03 21.97-38.18 25.29-16.62 3.42-33.05-.22-46.18-8.86C14.52 104.1 4.69 90.45 1.27 73.83c-3.34-16.23.05-32.28 8.26-45.25C17.78 15.57 30.88 5.64 46.91 1.75c.31-.08.67-.16 1.06-.25h.01 0l1.08-.23h0z" fill="black"/></svg>